<svg width="83" height="44" viewBox="0 0 83 44" fill="none" xmlns="http://www.w3.org/2000/svg">
<line x1="5.44247" y1="28.5737" x2="5.44247" y2="-4.00246e-05" stroke="white" stroke-width="1.36066"/>
<line x1="28.5736" y1="6.1232" x2="-0.000162125" y2="6.1232" stroke="white" stroke-width="1.36066"/>
<line x1="77.5576" y1="14.9673" x2="77.5576" y2="43.5411" stroke="white" stroke-width="1.36066"/>
<line x1="54.4265" y1="37.4178" x2="83.0003" y2="37.4178" stroke="white" stroke-width="1.36066"/>
<path d="M20.1513 26.6064L24.3149 17.0819H27.4716L31.6352 26.6064H28.3152L25.2401 18.6058H26.4919L23.4168 26.6064H20.1513ZM22.6277 24.9464L23.4441 22.6333H27.8254L28.6418 24.9464H22.6277ZM32.1477 26.6064V17.0819H37.2365C38.5518 17.0819 39.5224 17.3177 40.1483 17.7894C40.7742 18.252 41.0872 18.8462 41.0872 19.5719C41.0872 20.0526 40.9511 20.4835 40.679 20.8645C40.4159 21.2364 40.0304 21.5312 39.5224 21.7489C39.0145 21.9666 38.3886 22.0755 37.6447 22.0755L37.9169 21.3407C38.6607 21.3407 39.3002 21.445 39.8354 21.6537C40.3796 21.8623 40.7969 22.1662 41.0872 22.5653C41.3865 22.9554 41.5362 23.427 41.5362 23.9804C41.5362 24.8058 41.1915 25.4499 40.5021 25.9125C39.8218 26.3751 38.824 26.6064 37.5087 26.6064H32.1477ZM35.3044 24.3614H37.2365C37.5903 24.3614 37.8534 24.2979 38.0257 24.1709C38.2071 24.0439 38.2978 23.8579 38.2978 23.613C38.2978 23.3681 38.2071 23.1821 38.0257 23.0551C37.8534 22.9281 37.5903 22.8646 37.2365 22.8646H35.0867V20.742H36.8011C37.164 20.742 37.427 20.6831 37.5903 20.5651C37.7627 20.4381 37.8488 20.2613 37.8488 20.0345C37.8488 19.7986 37.7627 19.6217 37.5903 19.5038C37.427 19.3859 37.164 19.3269 36.8011 19.3269H35.3044V24.3614ZM44.6068 26.6064V19.5719H41.8175V17.0819H50.6073V19.5719H47.818V26.6064H44.6068ZM56.3021 26.8242C55.531 26.8242 54.8144 26.7017 54.1522 26.4568C53.4991 26.2119 52.9322 25.8672 52.4514 25.4227C51.9707 24.9691 51.5942 24.4385 51.3221 23.8307C51.059 23.2229 50.9275 22.5608 50.9275 21.8442C50.9275 21.1185 51.059 20.4563 51.3221 19.8576C51.5942 19.2498 51.9707 18.7237 52.4514 18.2792C52.9322 17.8257 53.4991 17.4764 54.1522 17.2315C54.8144 16.9866 55.531 16.8642 56.3021 16.8642C57.0822 16.8642 57.7988 16.9866 58.4519 17.2315C59.105 17.4764 59.672 17.8257 60.1527 18.2792C60.6335 18.7237 61.0054 19.2498 61.2685 19.8576C61.5406 20.4563 61.6767 21.1185 61.6767 21.8442C61.6767 22.5608 61.5406 23.2229 61.2685 23.8307C61.0054 24.4385 60.6335 24.9691 60.1527 25.4227C59.672 25.8672 59.105 26.2119 58.4519 26.4568C57.7988 26.7017 57.0822 26.8242 56.3021 26.8242ZM56.3021 24.2253C56.6014 24.2253 56.8781 24.1709 57.1321 24.062C57.3951 23.9532 57.6219 23.799 57.8124 23.5994C58.012 23.3908 58.1662 23.1413 58.275 22.851C58.3839 22.5517 58.4383 22.2161 58.4383 21.8442C58.4383 21.4722 58.3839 21.1411 58.275 20.8509C58.1662 20.5515 58.012 20.3021 57.8124 20.1025C57.6219 19.8939 57.3951 19.7351 57.1321 19.6263C56.8781 19.5174 56.6014 19.463 56.3021 19.463C56.0027 19.463 55.7215 19.5174 55.4585 19.6263C55.2045 19.7351 54.9777 19.8939 54.7781 20.1025C54.5877 20.3021 54.438 20.5515 54.3291 20.8509C54.2203 21.1411 54.1658 21.4722 54.1658 21.8442C54.1658 22.2161 54.2203 22.5517 54.3291 22.851C54.438 23.1413 54.5877 23.3908 54.7781 23.5994C54.9777 23.799 55.2045 23.9532 55.4585 24.062C55.7215 24.1709 56.0027 24.2253 56.3021 24.2253Z" fill="white"/>
</svg>
