<svg width="35" height="35" viewBox="0 0 35 35" fill="none" xmlns="http://www.w3.org/2000/svg">
<g clip-path="url(#clip0_1_156)">
<path d="M17.5 35C27.165 35 35 27.165 35 17.5C35 7.83502 27.165 0 17.5 0C7.83502 0 0 7.83502 0 17.5C0 27.165 7.83502 35 17.5 35Z" fill="url(#paint0_linear_1_156)"/>
<path fill-rule="evenodd" clip-rule="evenodd" d="M7.92148 17.3154C13.0231 15.0927 16.425 13.6274 18.1271 12.9194C22.987 10.898 23.9969 10.5469 24.6551 10.5353C24.7999 10.5327 25.1235 10.5686 25.3332 10.7387C25.5103 10.8824 25.559 11.0765 25.5823 11.2127C25.6056 11.3489 25.6346 11.6591 25.6115 11.9016C25.3482 14.6687 24.2086 21.3839 23.6289 24.4832C23.3836 25.7946 22.9005 26.2343 22.4329 26.2773C21.4167 26.3708 20.645 25.6057 19.6607 24.9605C18.1204 23.9509 17.2503 23.3224 15.7552 22.3371C14.0274 21.1985 15.1475 20.5728 16.1322 19.55C16.3899 19.2824 20.8675 15.2096 20.9542 14.8402C20.965 14.794 20.9751 14.6217 20.8728 14.5308C20.7704 14.4398 20.6194 14.4709 20.5104 14.4957C20.3559 14.5307 17.8954 16.157 13.1288 19.3746C12.4304 19.8542 11.7978 20.0879 11.231 20.0756C10.6062 20.0621 9.40424 19.7223 8.51072 19.4319C7.41478 19.0756 6.54375 18.8873 6.61959 18.2823C6.6591 17.9671 7.09306 17.6449 7.92148 17.3154Z" fill="white"/>
</g>
<defs>
<linearGradient id="paint0_linear_1_156" x1="17.5" y1="0" x2="17.5" y2="34.7404" gradientUnits="userSpaceOnUse">
<stop stop-color="#2AABEE"/>
<stop offset="1" stop-color="#229ED9"/>
</linearGradient>
<clipPath id="clip0_1_156">
<rect width="35" height="35" fill="white"/>
</clipPath>
</defs>
</svg>
