<svg width="35" height="35" viewBox="0 0 35 35" fill="none" xmlns="http://www.w3.org/2000/svg">
<g clip-path="url(#clip0_1_155)">
<path d="M34.3029 9.02041C34.105 8.27581 33.715 7.59623 33.172 7.0497C32.6289 6.50317 31.9519 6.10885 31.2085 5.90621C28.4722 5.17041 17.5347 5.17041 17.5347 5.17041C17.5347 5.17041 6.59717 5.17041 3.8608 5.90621C3.11748 6.10885 2.44042 6.50317 1.89738 7.0497C1.35434 7.59623 0.964364 8.27581 0.766486 9.02041C0.0346681 11.7687 0.034668 17.5 0.034668 17.5C0.034668 17.5 0.0346681 23.2312 0.766486 25.9795C0.964364 26.7241 1.35434 27.4037 1.89738 27.9502C2.44042 28.4967 3.11748 28.8911 3.8608 29.0937C6.59717 29.8295 17.5347 29.8295 17.5347 29.8295C17.5347 29.8295 28.4722 29.8295 31.2085 29.0937C31.9519 28.8911 32.6289 28.4967 33.172 27.9502C33.715 27.4037 34.105 26.7241 34.3029 25.9795C35.0347 23.2312 35.0347 17.5 35.0347 17.5C35.0347 17.5 35.0347 11.7687 34.3029 9.02041Z" fill="#FF0302"/>
<path d="M13.9551 22.7044V12.2959L23.1028 17.5002L13.9551 22.7044Z" fill="#FEFEFE"/>
</g>
<defs>
<clipPath id="clip0_1_155">
<rect width="35" height="35" fill="white"/>
</clipPath>
</defs>
</svg>
